/* XPM */
static char *_bd4ed657127489ec10de53cea6943d5iGUiZvfsseku6CsM[] = {
/* columns rows colors chars-per-pixel */
"32 32 51 1 ",
"  c #202020",
". c #282828",
"X c gray16",
"o c #2A2A2A",
"O c #2C2C2C",
"+ c #2D2D2D",
"@ c gray18",
"# c #2F2F2F",
"$ c #2D3835",
"% c #313131",
"& c #323232",
"* c gray20",
"= c #343434",
"- c #353535",
"; c #373737",
": c #393939",
"> c #3A3A3A",
", c #3C3C3C",
"< c #3E3E3E",
"1 c #3F3F3F",
"2 c #61412B",
"3 c #704634",
"4 c #7F4D36",
"5 c #3A4542",
"6 c #434343",
"7 c #444444",
"8 c gray27",
"9 c #464646",
"0 c #4C4C4C",
"q c gray31",
"w c #595652",
"e c #585858",
"r c #6B6970",
"t c #8F3232",
"y c #AD3B3B",
"u c #804D36",
"i c #8E563B",
"p c #8F563B",
"a c #8E5E47",
"s c #AB4343",
"d c #9E6451",
"f c #AB765E",
"g c #D95763",
"h c #C9957F",
"j c #D9A066",
"k c #847E87",
"l c #368899",
"z c #9BADB7",
"x c #EEC39A",
"c c #CBDBFC",
"v c #D6EBFF",
/* pixels */
"99999O  ,,,,,699,,199O  OO&,,,,,",
"99999O  ,,,,,699,,199O  OO&,,,,,",
"99999O  ,,,,,hhhh,199O  ##*>,,,,",
"99999O  ,,,,,3ffdhh99O  OO&1,,,,",
"99999O  1>,>3d3ffdff9O  OO&1,,,,",
"11111o  *==1ddddfddf9O  >;*&&&&&",
"1>1>>o  OO&,3dd33d3f9O  ,,;OOOOO",
"1>>>1o  OO&,y3fvljl39O  ,,>O##OO",
"            t33xxxxg            ",
"           sttggjjsg            ",
"OOoOOOoo&&skrtttgggtkO&&OOOOOOOO",
"99999999egkkkssstttykkee99999999",
"99999999egkkricsssscrkee99999999",
"11161699gkkwuzzuwwzzwrk099611111",
"11>>>699gkrsutpuwwupwzcc996,,,,,",
">>1>169gkrwttipuwrup,zzc996,,,,,",
"+++++++sccztup4wkkupOOzcc1,,,,,,",
"++++++gsccz,uuwkkkkOOOzcc,,,,,,,",
".o.o.ogsccz*wtrkkkkuoozzc&******",
"      stczz ppwrrrru  www       ",
"      stzzw 444ppp44   ww       ",
">>>>>.t krw94$$$$$$4>.  >>199999",
"99999O  tt9e$5$$$$5$9O  990eeeee",
"99999+  t,7e55$9e$559O  990eeeee",
"eeeee%  ,,1955$99$559O  OO=99999",
"eeeee%  ,,1955$99$559O  OO=99999",
"qqqqqO  >;;1u$6651$49O  OO=66677",
",,,,1.  OOOaa2,,++244O  #O=1,,,,",
",,,,,o  +++aaa,,++2u4O  OO&,,,,,",
",,,,,.  +++aa;,,++-2uO  OO&,,,,,",
",,,,,o  +++au;,,++-2uO  O#&,,,,,",
",,,,,.  +++u2;,,++-22u  OO&,,,,,"
};
