/* XPM */
static char *bd0d7222014f44ade0d30acf811ead4fmMiFtqg1CgwEwXuY[] = {
/* columns rows colors chars-per-pixel */
"32 32 203 2 ",
"   c #261F1F",
".  c #2B1D1D",
"X  c #2F1D1D",
"o  c #351B1B",
"O  c #391A1A",
"+  c #391B1B",
"@  c #202020",
"#  c #222020",
"$  c #282828",
"%  c gray16",
"&  c #2A2A2A",
"*  c #2C2C2C",
"=  c #2D2D2D",
"-  c gray18",
";  c #313131",
":  c #323232",
">  c gray20",
",  c #343232",
"<  c #343434",
"1  c #353535",
"2  c #373737",
"3  c gray22",
"4  c #393939",
"5  c #3A3A3A",
"6  c #3E3B3B",
"7  c #3C3C3C",
"8  c #3E3E3E",
"9  c #3F3F3F",
"0  c #4C1717",
"q  c #4E1717",
"w  c #471818",
"e  c #531515",
"r  c #571515",
"t  c #5F1313",
"y  c #541F1F",
"u  c #5B1D1D",
"i  c #5F1D1D",
"p  c #770E0E",
"a  c #641111",
"s  c #651212",
"d  c #6B1818",
"f  c #7C1111",
"g  c #7E1111",
"h  c #7D1C1C",
"j  c #4A2020",
"k  c #482929",
"l  c #492B2B",
"z  c #4C2C2C",
"x  c #512727",
"c  c #582323",
"v  c #5A2525",
"b  c #453737",
"n  c #4D3333",
"m  c #493535",
"M  c #423838",
"N  c #533030",
"B  c #533636",
"V  c #543D3D",
"C  c #5B3838",
"Z  c #692525",
"A  c #682626",
"S  c #642828",
"D  c #602C2C",
"F  c #642F2F",
"G  c #6B2D2D",
"H  c #6C2D2D",
"J  c #702525",
"K  c #742727",
"L  c #752B2B",
"P  c #603232",
"I  c #673030",
"U  c #743D3D",
"Y  c #434343",
"T  c gray27",
"R  c #464646",
"E  c #4C4242",
"W  c #484545",
"Q  c #4C4C4C",
"!  c gray31",
"~  c #585858",
"^  c #8E0D0D",
"/  c #960707",
"(  c #990808",
")  c #9A0808",
"_  c #9B0909",
"`  c #9B0A0A",
"'  c #9C0A0A",
"]  c #9A0F0F",
"[  c #9F0D0D",
"{  c #801515",
"}  c #851818",
"|  c #8A1A1A",
" . c #8F1919",
".. c #921111",
"X. c #901616",
"o. c #9A1919",
"O. c #991B1B",
"+. c #9E1D1D",
"@. c #A20606",
"#. c #A50505",
"$. c #AD0303",
"%. c #AE0303",
"&. c #AB0404",
"*. c #AA0505",
"=. c #AB0505",
"-. c #AB0606",
";. c #AC0404",
":. c #AF0404",
">. c #AC0606",
",. c #A20B0B",
"<. c #A10C0C",
"1. c #A30E0E",
"2. c #AB0909",
"3. c #B00404",
"4. c #B20606",
"5. c #B40707",
"6. c #B50808",
"7. c #B60808",
"8. c #B80B0B",
"9. c #B90C0C",
"0. c #BA0C0C",
"q. c #BB0D0D",
"w. c #BE0E0E",
"e. c #B01414",
"r. c #BF1111",
"t. c #812020",
"y. c #802222",
"u. c #902020",
"i. c #AA2020",
"p. c #AD2222",
"a. c #C20F0F",
"s. c #C61111",
"d. c #C41515",
"f. c #C51515",
"g. c #C61616",
"h. c #C81616",
"j. c #CE1717",
"k. c #C61818",
"l. c #CA1919",
"z. c #C91A1A",
"x. c #CD1C1C",
"c. c #CC1D1D",
"v. c #CD1D1D",
"b. c #CE1D1D",
"n. c #CF1D1D",
"m. c #D11B1B",
"M. c #D21E1E",
"N. c #D21F1F",
"B. c #D41E1E",
"V. c #D91E1E",
"C. c #C72121",
"Z. c #D02222",
"A. c #D32323",
"S. c #D52222",
"D. c #D42424",
"F. c #D42727",
"G. c #D62626",
"H. c #D82424",
"J. c #D92424",
"K. c #DA2424",
"L. c #DB2424",
"P. c #DD2525",
"I. c #DF2525",
"U. c #DA2929",
"Y. c #DE2828",
"T. c #DC2D2D",
"R. c #E02222",
"E. c #E02323",
"W. c #E02525",
"Q. c #E12525",
"!. c #E32424",
"~. c #E42626",
"^. c #E52626",
"/. c #E62626",
"(. c #E72626",
"). c #E92828",
"_. c #E92929",
"`. c #EB2C2C",
"'. c #EC2E2E",
"]. c #ED2F2F",
"[. c #E43131",
"{. c #EE3131",
"}. c #EF3333",
"|. c #EA3737",
" X c #EE3A3A",
".X c #F03434",
"XX c #F13535",
"oX c #F23737",
"OX c #F33838",
"+X c #F23E3E",
"@X c #F33F3F",
"#X c #F63D3D",
"$X c #F73E3E",
"%X c #F74141",
"&X c #F74242",
"*X c #F84040",
"=X c #F84343",
"-X c #FA4343",
";X c #FA4444",
":X c #FB4444",
">X c #FB4545",
",X c #FC4545",
"<X c #FC4646",
/* pixels */
"R R R R R * @ @ 5 9 5 5 9 Y R R 5 5 Y R R * @ @ * * ; 9 7 7 7 7 ",
"R R R R R * @ @ 9 5 5 9 5 Y R R 9 5 9 R R * @ @ * * ; 7 7 7 7 7 ",
"R R R R R * @ @ 9 5 5 9 5 Y R R 9 5 9 R R * @ @ - * < 7 7 7 7 7 ",
"R R R R R * @ @ 5 9 5 5 9 Y R R 5 5 9 R R & @ @ * - < 7 7 7 7 7 ",
"R R R R R * @ @ 9 5 5 9 7 Y R R 9 5 9 R R &   @ * * ; 9 7 7 7 7 ",
"9 9 9 9 9 & @ @ k c v N 7 8 Y M ; ; 5 W C y q O 2 2 1 ; ; ; < ; ",
"9 5 9 5 5 & @ @ d ' ' h M 7 9 5 * * 5 E y.' ) s 9 7 2 * - * * * ",
"9 5 5 5 9 & o r +.M.c.i.Z A S m * * z L i.c.c.o.A n 5 - * - * * ",
"@ @ @ @ @ @ r @.F.&X&XT.2.#./ w @ @ s 2.T.=X*XF.@.e @ @ @ @ @ @ ",
"@ @ @ @ @ s  .Z.|.;X<X XG.S.C.} s s O.F. X<X<X|.Z. .s @ @ @ @ @ ",
"* * & * * $.c.;X<X<X<X<X<X<X@Xz.>.>.G.;X;X<X<X<X;Xc.$.* * * * * ",
"R R R R R $.h.}..X.X.X.X.X@X*X[.U.U.|.<X<X<X<X<X;Xc.$.R R R R R ",
"R R R R R $.a.R.R.(./.(.(..X*X*X<X<X<X<X:X*X<X*X+Xz.>.R R R R R ",
"9 9 9 Y 9 $.7.a.m.W./.(.(.`.}.}..X<X<X<XOX.X}.P.z.0.>.M 9 9 9 9 ",
"9 9 5 5 5 ] ,.$.g.K.W./.(.(.(.(.`.@X$X$X`.(.(.j.$.,.' 7 7 7 7 7 ",
"5 5 9 5 7 P y.$.g.K.P.P./.(.(.(.).`.}.`.).(.(.j.>.y.C 7 7 7 7 7 ",
"- * - * - * u $.s.x.S.P./.(.(.(.(.(.(.(./.I.V.s.$.A 7 7 7 7 7 7 ",
"* - * - * * d $.>.w.c.P./.(.(.(.(.(.(.(.P.M.w.4.&.A 5 9 7 7 7 7 ",
"& $ & $ & $ j { ( 7.x.K.W./.(.(.(.(./.W.K.c.7.( { x < ; < < < ; ",
"@ @ @ @ @ @ # . p 7.x.K.K.W.(.(.(.(.W.K.K.c.7.p . . @ @ @ @ @ @ ",
"@ @ @ @ @ @ @ @ q g e.g.g.B.W.W.W.W.B.g.g.e.g q @ @ @ @ @ @ @ @ ",
"5 5 5 5 5 $ @ @ , k ..4.$.d.K.G.K.K.g.>.3.^ O @ 5 5 9 R R R R R ",
"R R R R R * @ @ 7 b G u.>.0.g.Z.M.g.7.-.| u . @ R R Q ~ ~ ~ ~ ~ ",
"R R R R R * @ @ 7 5 R U <.&.4.z.z.4.>.<.F *   @ R R Q ~ ~ ~ ~ ~ ",
"~ ~ ~ ~ ~ - @ @ 7 7 9 V H X.4.0.0.4.X.H E * @ @ * * 1 R R R R R ",
"~ ~ ~ ~ ~ : @ @ 5 9 9 R R K <.' <.' L R W * @ @ * * < R R R R R ",
"! ! ! ! ! - @ @ 5 1 5 Y 9 B I F v P B R W - @ @ * * 1 Y Y Y Y Y ",
"7 7 7 7 7 & @ @ * * * * * 1 7 7 * - 1 W W * @ @ * - < 9 7 7 7 7 ",
"7 7 7 7 7 & @ @ * - * - * 5 7 7 - * 2 W R * @ @ - * ; 7 7 7 7 7 ",
"7 7 7 7 7 & @ @ - * - * * 1 7 5 * - 1 R R * @ @ * * ; 5 7 7 7 7 ",
"7 7 7 7 7 & @ @ * - * * * 5 5 9 * * 1 R R * @ @ - * ; 9 7 7 7 7 ",
"7 7 7 7 7 $ @ @ - * - * * 1 9 9 * * 1 R R * @ @ * - ; 7 7 7 7 7 "
};
