/* XPM */
static char *_41c39ebeced4c9dab2b87e3a17f66f0QicggcowiQH4Dsif[] = {
/* columns rows colors chars-per-pixel */
"32 32 32 1 ",
"  c black",
". c gray1",
"X c #202020",
"o c #282828",
"O c gray16",
"+ c #2A2A2A",
"@ c #2C2C2C",
"# c #2D2D2D",
"$ c gray18",
"% c #313131",
"& c #323232",
"* c gray20",
"= c #343434",
"- c #353535",
"; c #373737",
": c gray22",
"> c #3A3A3A",
", c #3C3C3C",
"< c #3E3E3E",
"1 c #3F3F3F",
"2 c #452209",
"3 c #513921",
"4 c #434343",
"5 c #444444",
"6 c #464646",
"7 c #4C4C4C",
"8 c gray31",
"9 c #585858",
"0 c DimGray",
"q c SaddleBrown",
"w c #A37343",
"e c gray72",
/* pixels */
"66666@XX>1>>1466>>166@XX@@%1>>1>",
"66666@XX1>>1>4661>166@XX@@%>1>>1",
"66666@XX1>>1>4661>166@XX%@=11>>1",
"66666@XX>1>>1466>1166@XX@@%1>>1>",
"66666@XX1>11>466>1166+XX@@%11>1>",
"11111+XX=%=>1111%%>66@XX=>=%%%%%",
"1>1>>+XX@@%1>1    =66@XX11>@@@@@",
"1>>>1+XX@@%  00= 00  @XX1>=%@@%@",
"XXXXXXXXXX000     000 XXXXXXXXXX",
"XXXXXXXX 0   qqqwqw  00XXXXXXXXX",
"@@+@@@@@00 wqqqqwqwqq00 ++@@@@@@",
"66666666 0qwqqqqwqwqq 0 66666666",
"6666666 0 qwqqqqwqwqqq 066666666",
"1114146 0 qwqqqqwqwqqq 066611111",
"11>>>46 0 qwqqqqwqwqqq 0664>>11>",
">>1>146 0 qwqqqqwqwqqq 0664>1>>1",
"%@@@@@@   qwqqqqwqwqee  11>1>>1>",
"@@@+%@@ 0 qwqqqqwqwqqq 0>>>11>>1",
"+++++++ 0 qwqqqqwqwqqq 0=%===%%=",
"XXXXXXX 0 qwqqqqwqwqqq 0XXXXXXXX",
"XXXXXXX 0 q  qqqwqwqqq 0XXXXXXXX",
">>>>>+X . qwqqqqwqwqqq  >>166666",
"66666@X 0 q32qqqwqwqqq 066799999",
"66666@X 0 qwqqqqwqwqqq 066799999",
"99999%X   qwqqqqwqwqqq  @@=66666",
"99999%X 0 qwqqqqwqwqqq 0@@=66666",
"77778@X 0 qwqqqqwqwqqq 0@@=44644",
"11111+X 0 qwqqqqwqwq   0%@=1>>>1",
">1>>>+X 0 qwqqqqwqwq   0@@%111>1",
">>111oX   qwqqqqwqwqqq  @@%>>>>>",
"1>1>>+X 0 qwqqqqwqwqqq 0@@%1>11>",
">1>>1+X 0 qwqqqqwqwqqq 0@%%>1>>1"
};
